<svg width="68" height="68" viewBox="0 0 68 68" fill="none" xmlns="http://www.w3.org/2000/svg">
<path d="M14.4375 31.424L17.0295 30.704V40H18.9015V28.624L14.4375 29.632V31.424ZM23.596 34.4C23.596 33.792 23.6547 33.2427 23.772 32.752C23.8893 32.2507 24.0547 31.8187 24.268 31.456C24.4813 31.0933 24.7427 30.816 25.052 30.624C25.3613 30.4213 25.708 30.32 26.092 30.32C26.4013 30.32 26.684 30.384 26.94 30.512C27.2067 30.64 27.4413 30.8267 27.644 31.072C27.8467 31.3067 28.0173 31.5893 28.156 31.92C28.3053 32.2507 28.4173 32.6293 28.492 33.056C28.5667 33.472 28.604 33.92 28.604 34.4C28.604 35.008 28.5453 35.5627 28.428 36.064C28.3107 36.5547 28.14 36.9813 27.916 37.344C27.7027 37.7067 27.4413 37.9893 27.132 38.192C26.8227 38.384 26.476 38.48 26.092 38.48C25.7827 38.48 25.5 38.416 25.244 38.288C24.988 38.16 24.7587 37.9787 24.556 37.744C24.3533 37.4987 24.1773 37.2107 24.028 36.88C23.8893 36.5493 23.7827 36.176 23.708 35.76C23.6333 35.3333 23.596 34.88 23.596 34.4ZM21.74 34.4C21.74 35.0933 21.804 35.7387 21.932 36.336C22.0707 36.9227 22.268 37.456 22.524 37.936C22.78 38.4053 23.084 38.8107 23.436 39.152C23.7987 39.4827 24.1987 39.7387 24.636 39.92C25.084 40.0907 25.5693 40.176 26.092 40.176C26.7533 40.176 27.3507 40.0427 27.884 39.776C28.4173 39.4987 28.876 39.104 29.26 38.592C29.644 38.08 29.9373 37.472 30.14 36.768C30.3533 36.0533 30.46 35.264 30.46 34.4C30.46 33.7067 30.3907 33.0667 30.252 32.48C30.124 31.8827 29.932 31.3493 29.676 30.88C29.42 30.4 29.1107 29.9947 28.748 29.664C28.396 29.3227 27.996 29.0667 27.548 28.896C27.1 28.7147 26.6147 28.624 26.092 28.624C25.4413 28.624 24.8493 28.7627 24.316 29.04C23.7827 29.3067 23.324 29.696 22.94 30.208C22.556 30.72 22.2573 31.3333 22.044 32.048C21.8413 32.752 21.74 33.536 21.74 34.4ZM33.8804 34.4C33.8804 33.792 33.939 33.2427 34.0564 32.752C34.1737 32.2507 34.339 31.8187 34.5524 31.456C34.7657 31.0933 35.027 30.816 35.3364 30.624C35.6457 30.4213 35.9924 30.32 36.3764 30.32C36.6857 30.32 36.9684 30.384 37.2244 30.512C37.491 30.64 37.7257 30.8267 37.9284 31.072C38.131 31.3067 38.3017 31.5893 38.4404 31.92C38.5897 32.2507 38.7017 32.6293 38.7764 33.056C38.851 33.472 38.8884 33.92 38.8884 34.4C38.8884 35.008 38.8297 35.5627 38.7124 36.064C38.595 36.5547 38.4244 36.9813 38.2004 37.344C37.987 37.7067 37.7257 37.9893 37.4164 38.192C37.107 38.384 36.7604 38.48 36.3764 38.48C36.067 38.48 35.7844 38.416 35.5284 38.288C35.2724 38.16 35.043 37.9787 34.8404 37.744C34.6377 37.4987 34.4617 37.2107 34.3124 36.88C34.1737 36.5493 34.067 36.176 33.9924 35.76C33.9177 35.3333 33.8804 34.88 33.8804 34.4ZM32.0244 34.4C32.0244 35.0933 32.0884 35.7387 32.2164 36.336C32.355 36.9227 32.5524 37.456 32.8084 37.936C33.0644 38.4053 33.3684 38.8107 33.7204 39.152C34.083 39.4827 34.483 39.7387 34.9204 39.92C35.3684 40.0907 35.8537 40.176 36.3764 40.176C37.0377 40.176 37.635 40.0427 38.1684 39.776C38.7017 39.4987 39.1604 39.104 39.5444 38.592C39.9284 38.08 40.2217 37.472 40.4244 36.768C40.6377 36.0533 40.7444 35.264 40.7444 34.4C40.7444 33.7067 40.675 33.0667 40.5364 32.48C40.4084 31.8827 40.2164 31.3493 39.9604 30.88C39.7044 30.4 39.395 29.9947 39.0324 29.664C38.6804 29.3227 38.2804 29.0667 37.8324 28.896C37.3844 28.7147 36.899 28.624 36.3764 28.624C35.7257 28.624 35.1337 28.7627 34.6004 29.04C34.067 29.3067 33.6084 29.696 33.2244 30.208C32.8404 30.72 32.5417 31.3333 32.3284 32.048C32.1257 32.752 32.0244 33.536 32.0244 34.4ZM42.1487 31.296C42.1487 31.7973 42.2661 32.256 42.5007 32.672C42.7354 33.0773 43.0554 33.4027 43.4607 33.648C43.8767 33.8933 44.3514 34.016 44.8847 34.016C45.4181 34.016 45.8874 33.8933 46.2927 33.648C46.7087 33.4027 47.0287 33.0773 47.2527 32.672C47.4874 32.256 47.6047 31.7973 47.6047 31.296C47.6047 30.7947 47.4874 30.3413 47.2527 29.936C47.0287 29.52 46.7087 29.1893 46.2927 28.944C45.8874 28.6987 45.4181 28.576 44.8847 28.576C44.3514 28.576 43.8767 28.6987 43.4607 28.944C43.0554 29.1893 42.7354 29.52 42.5007 29.936C42.2661 30.3413 42.1487 30.7947 42.1487 31.296ZM43.6207 31.296C43.6207 31.0507 43.6741 30.832 43.7807 30.64C43.8874 30.4373 44.0314 30.2773 44.2127 30.16C44.4047 30.032 44.6287 29.968 44.8847 29.968C45.1407 29.968 45.3594 30.032 45.5407 30.16C45.7327 30.2773 45.8767 30.4373 45.9727 30.64C46.0687 30.832 46.1167 31.0507 46.1167 31.296C46.1167 31.5307 46.0687 31.7547 45.9727 31.968C45.8767 32.1707 45.7327 32.336 45.5407 32.464C45.3594 32.5813 45.1407 32.64 44.8847 32.64C44.6287 32.64 44.4047 32.5813 44.2127 32.464C44.0314 32.336 43.8874 32.1707 43.7807 31.968C43.6741 31.7547 43.6207 31.5307 43.6207 31.296ZM48.8367 37.504C48.8367 38.0053 48.9487 38.464 49.1727 38.88C49.4074 39.2853 49.7274 39.6107 50.1327 39.856C50.5487 40.1013 51.0234 40.224 51.5567 40.224C52.0901 40.224 52.5594 40.1013 52.9647 39.856C53.3807 39.6107 53.7007 39.2853 53.9247 38.88C54.1594 38.464 54.2767 38.0053 54.2767 37.504C54.2767 37.0027 54.1594 36.5493 53.9247 36.144C53.7007 35.728 53.3807 35.3973 52.9647 35.152C52.5594 34.9067 52.0901 34.784 51.5567 34.784C51.0234 34.784 50.5487 34.9067 50.1327 35.152C49.7274 35.3973 49.4074 35.728 49.1727 36.144C48.9487 36.5493 48.8367 37.0027 48.8367 37.504ZM50.3087 37.504C50.3087 37.2587 50.3567 37.0347 50.4527 36.832C50.5594 36.6293 50.7034 36.4693 50.8847 36.352C51.0767 36.224 51.3007 36.16 51.5567 36.16C51.8127 36.16 52.0314 36.224 52.2127 36.352C52.4047 36.4693 52.5487 36.6293 52.6447 36.832C52.7514 37.0347 52.8047 37.2587 52.8047 37.504C52.8047 37.7387 52.7514 37.9573 52.6447 38.16C52.5487 38.3627 52.4047 38.528 52.2127 38.656C52.0314 38.7733 51.8127 38.832 51.5567 38.832C51.3007 38.832 51.0767 38.7733 50.8847 38.656C50.7034 38.528 50.5594 38.3627 50.4527 38.16C50.3567 37.9573 50.3087 37.7387 50.3087 37.504ZM51.2367 28.8L43.4767 40H45.1887L52.9647 28.8H51.2367Z" fill="#00B800"/>
<path fill-rule="evenodd" clip-rule="evenodd" d="M34 66C51.6731 66 66 51.6731 66 34C66 16.3269 51.6731 2 34 2C16.3269 2 2 16.3269 2 34C2 51.6731 16.3269 66 34 66Z" stroke="#00B800" stroke-width="3" stroke-linecap="round" stroke-linejoin="round"/>
</svg>
