<svg width="66" height="67" viewBox="0 0 66 67" fill="none" xmlns="http://www.w3.org/2000/svg">
<path fill-rule="evenodd" clip-rule="evenodd" d="M33 66C50.6731 66 65 51.6731 65 34C65 16.3269 50.6731 2 33 2C15.3269 2 1 16.3269 1 34C1 51.6731 15.3269 66 33 66Z" stroke="#C5CBD1" stroke-width="2" stroke-linecap="round" stroke-linejoin="round"/>
<path d="M33 2.00003C24.8246 2.00003 17.3653 5.06581 11.709 10.1104" stroke="#FC002B" stroke-width="3" stroke-linecap="round" stroke-linejoin="round"/>
<path d="M16.6606 40H25.2046V38.24H20.3566L23.5246 35.12C23.9833 34.6827 24.3513 34.1973 24.6286 33.664C24.9166 33.12 25.0606 32.5547 25.0606 31.968C25.0606 31.5947 24.9806 31.216 24.8206 30.832C24.6713 30.4373 24.4366 30.0747 24.1166 29.744C23.8073 29.4027 23.4126 29.1307 22.9326 28.928C22.4526 28.7147 21.8873 28.608 21.2366 28.608C20.3833 28.608 19.658 28.7893 19.0606 29.152C18.474 29.5147 18.026 30.0107 17.7166 30.64C17.418 31.2587 17.2686 31.968 17.2686 32.768H19.1406C19.1406 32.2667 19.2206 31.8347 19.3806 31.472C19.5513 31.0987 19.7913 30.8107 20.1006 30.608C20.41 30.4053 20.778 30.304 21.2046 30.304C21.514 30.304 21.786 30.3573 22.0206 30.464C22.2553 30.56 22.4526 30.6933 22.6126 30.864C22.7833 31.024 22.906 31.2107 22.9806 31.424C23.066 31.6267 23.1086 31.84 23.1086 32.064C23.1086 32.3627 23.0553 32.6507 22.9486 32.928C22.8526 33.1947 22.7086 33.4613 22.5166 33.728C22.3246 33.984 22.0953 34.256 21.8286 34.544L16.6606 40ZM28.7773 34.4C28.7773 33.792 28.8359 33.2427 28.9533 32.752C29.0706 32.2507 29.2359 31.8187 29.4493 31.456C29.6626 31.0933 29.9239 30.816 30.2333 30.624C30.5426 30.4213 30.8893 30.32 31.2733 30.32C31.5826 30.32 31.8653 30.384 32.1213 30.512C32.3879 30.64 32.6226 30.8267 32.8253 31.072C33.0279 31.3067 33.1986 31.5893 33.3373 31.92C33.4866 32.2507 33.5986 32.6293 33.6733 33.056C33.7479 33.472 33.7853 33.92 33.7853 34.4C33.7853 35.008 33.7266 35.5627 33.6093 36.064C33.4919 36.5547 33.3213 36.9813 33.0973 37.344C32.8839 37.7067 32.6226 37.9893 32.3133 38.192C32.0039 38.384 31.6573 38.48 31.2733 38.48C30.9639 38.48 30.6813 38.416 30.4253 38.288C30.1693 38.16 29.9399 37.9787 29.7373 37.744C29.5346 37.4987 29.3586 37.2107 29.2093 36.88C29.0706 36.5493 28.9639 36.176 28.8893 35.76C28.8146 35.3333 28.7773 34.88 28.7773 34.4ZM26.9213 34.4C26.9213 35.0933 26.9853 35.7387 27.1133 36.336C27.2519 36.9227 27.4493 37.456 27.7053 37.936C27.9613 38.4053 28.2653 38.8107 28.6173 39.152C28.9799 39.4827 29.3799 39.7387 29.8173 39.92C30.2653 40.0907 30.7506 40.176 31.2733 40.176C31.9346 40.176 32.5319 40.0427 33.0653 39.776C33.5986 39.4987 34.0573 39.104 34.4413 38.592C34.8253 38.08 35.1186 37.472 35.3213 36.768C35.5346 36.0533 35.6413 35.264 35.6413 34.4C35.6413 33.7067 35.5719 33.0667 35.4333 32.48C35.3053 31.8827 35.1133 31.3493 34.8573 30.88C34.6013 30.4 34.2919 29.9947 33.9293 29.664C33.5773 29.3227 33.1773 29.0667 32.7293 28.896C32.2813 28.7147 31.7959 28.624 31.2733 28.624C30.6226 28.624 30.0306 28.7627 29.4973 29.04C28.9639 29.3067 28.5053 29.696 28.1213 30.208C27.7373 30.72 27.4386 31.3333 27.2253 32.048C27.0226 32.752 26.9213 33.536 26.9213 34.4ZM37.0456 31.296C37.0456 31.7973 37.163 32.256 37.3976 32.672C37.6323 33.0773 37.9523 33.4027 38.3576 33.648C38.7736 33.8933 39.2483 34.016 39.7816 34.016C40.315 34.016 40.7843 33.8933 41.1896 33.648C41.6056 33.4027 41.9256 33.0773 42.1496 32.672C42.3843 32.256 42.5016 31.7973 42.5016 31.296C42.5016 30.7947 42.3843 30.3413 42.1496 29.936C41.9256 29.52 41.6056 29.1893 41.1896 28.944C40.7843 28.6987 40.315 28.576 39.7816 28.576C39.2483 28.576 38.7736 28.6987 38.3576 28.944C37.9523 29.1893 37.6323 29.52 37.3976 29.936C37.163 30.3413 37.0456 30.7947 37.0456 31.296ZM38.5176 31.296C38.5176 31.0507 38.571 30.832 38.6776 30.64C38.7843 30.4373 38.9283 30.2773 39.1096 30.16C39.3016 30.032 39.5256 29.968 39.7816 29.968C40.0376 29.968 40.2563 30.032 40.4376 30.16C40.6296 30.2773 40.7736 30.4373 40.8696 30.64C40.9656 30.832 41.0136 31.0507 41.0136 31.296C41.0136 31.5307 40.9656 31.7547 40.8696 31.968C40.7736 32.1707 40.6296 32.336 40.4376 32.464C40.2563 32.5813 40.0376 32.64 39.7816 32.64C39.5256 32.64 39.3016 32.5813 39.1096 32.464C38.9283 32.336 38.7843 32.1707 38.6776 31.968C38.571 31.7547 38.5176 31.5307 38.5176 31.296ZM43.7336 37.504C43.7336 38.0053 43.8456 38.464 44.0696 38.88C44.3043 39.2853 44.6243 39.6107 45.0296 39.856C45.4456 40.1013 45.9203 40.224 46.4536 40.224C46.987 40.224 47.4563 40.1013 47.8616 39.856C48.2776 39.6107 48.5976 39.2853 48.8216 38.88C49.0563 38.464 49.1736 38.0053 49.1736 37.504C49.1736 37.0027 49.0563 36.5493 48.8216 36.144C48.5976 35.728 48.2776 35.3973 47.8616 35.152C47.4563 34.9067 46.987 34.784 46.4536 34.784C45.9203 34.784 45.4456 34.9067 45.0296 35.152C44.6243 35.3973 44.3043 35.728 44.0696 36.144C43.8456 36.5493 43.7336 37.0027 43.7336 37.504ZM45.2056 37.504C45.2056 37.2587 45.2536 37.0347 45.3496 36.832C45.4563 36.6293 45.6003 36.4693 45.7816 36.352C45.9736 36.224 46.1976 36.16 46.4536 36.16C46.7096 36.16 46.9283 36.224 47.1096 36.352C47.3016 36.4693 47.4456 36.6293 47.5416 36.832C47.6483 37.0347 47.7016 37.2587 47.7016 37.504C47.7016 37.7387 47.6483 37.9573 47.5416 38.16C47.4456 38.3627 47.3016 38.528 47.1096 38.656C46.9283 38.7733 46.7096 38.832 46.4536 38.832C46.1976 38.832 45.9736 38.7733 45.7816 38.656C45.6003 38.528 45.4563 38.3627 45.3496 38.16C45.2536 37.9573 45.2056 37.7387 45.2056 37.504ZM46.1336 28.8L38.3736 40H40.0856L47.8616 28.8H46.1336Z" fill="#FC002B"/>
</svg>
