<svg width="68" height="68" viewBox="0 0 68 68" fill="none" xmlns="http://www.w3.org/2000/svg">
<path fill-rule="evenodd" clip-rule="evenodd" d="M34 66C51.6731 66 66 51.6731 66 34C66 16.3269 51.6731 2 34 2C16.3269 2 2 16.3269 2 34C2 51.6731 16.3269 66 34 66Z" stroke="#C5CBD1" stroke-width="2" stroke-linecap="round" stroke-linejoin="round"/>
<path d="M34 2C16.3269 2 2 16.3269 2 34C2 51.6731 16.3269 66 34 66C51.6731 66 66 51.6731 66 34" stroke="#3A86FF" stroke-width="3" stroke-linecap="round" stroke-linejoin="round"/>
<path d="M18.4222 30.576H23.9742L19.3822 40H21.3982L26.7742 28.8H18.4222V30.576ZM36.0288 36.352C36.0288 35.5947 35.8741 34.9387 35.5648 34.384C35.2661 33.8293 34.8608 33.3973 34.3488 33.088C33.8475 32.7787 33.2875 32.624 32.6688 32.624C32.3595 32.624 32.0555 32.656 31.7568 32.72C31.4581 32.784 31.1701 32.8853 30.8928 33.024L31.5968 30.464H35.9328V28.8H30.1728L28.6528 34.96C29.0368 34.7253 29.3888 34.544 29.7088 34.416C30.0395 34.288 30.3595 34.2027 30.6688 34.16C30.9781 34.1067 31.2981 34.08 31.6288 34.08C32.0661 34.08 32.4608 34.1653 32.8128 34.336C33.1755 34.5067 33.4635 34.752 33.6768 35.072C33.9008 35.392 34.0128 35.7813 34.0128 36.24C34.0128 36.688 33.9168 37.0773 33.7248 37.408C33.5435 37.728 33.2715 37.9787 32.9088 38.16C32.5568 38.3307 32.1301 38.416 31.6288 38.416C31.2768 38.416 30.9248 38.3467 30.5728 38.208C30.2208 38.0587 29.8901 37.8667 29.5808 37.632C29.2821 37.3867 29.0208 37.12 28.7968 36.832L27.6928 38.192C27.9808 38.5547 28.3168 38.8853 28.7008 39.184C29.0955 39.4827 29.5541 39.7227 30.0768 39.904C30.5995 40.0853 31.2021 40.176 31.8848 40.176C32.4288 40.176 32.9461 40.1013 33.4368 39.952C33.9381 39.792 34.3808 39.552 34.7648 39.232C35.1595 38.912 35.4688 38.512 35.6928 38.032C35.9168 37.552 36.0288 36.992 36.0288 36.352ZM37.4441 31.296C37.4441 31.7973 37.5614 32.256 37.7961 32.672C38.0307 33.0773 38.3507 33.4027 38.7561 33.648C39.1721 33.8933 39.6467 34.016 40.1801 34.016C40.7134 34.016 41.1827 33.8933 41.5881 33.648C42.0041 33.4027 42.3241 33.0773 42.5481 32.672C42.7827 32.256 42.9001 31.7973 42.9001 31.296C42.9001 30.7947 42.7827 30.3413 42.5481 29.936C42.3241 29.52 42.0041 29.1893 41.5881 28.944C41.1827 28.6987 40.7134 28.576 40.1801 28.576C39.6467 28.576 39.1721 28.6987 38.7561 28.944C38.3507 29.1893 38.0307 29.52 37.7961 29.936C37.5614 30.3413 37.4441 30.7947 37.4441 31.296ZM38.9161 31.296C38.9161 31.0507 38.9694 30.832 39.0761 30.64C39.1827 30.4373 39.3267 30.2773 39.5081 30.16C39.7001 30.032 39.9241 29.968 40.1801 29.968C40.4361 29.968 40.6547 30.032 40.8361 30.16C41.0281 30.2773 41.1721 30.4373 41.2681 30.64C41.3641 30.832 41.4121 31.0507 41.4121 31.296C41.4121 31.5307 41.3641 31.7547 41.2681 31.968C41.1721 32.1707 41.0281 32.336 40.8361 32.464C40.6547 32.5813 40.4361 32.64 40.1801 32.64C39.9241 32.64 39.7001 32.5813 39.5081 32.464C39.3267 32.336 39.1827 32.1707 39.0761 31.968C38.9694 31.7547 38.9161 31.5307 38.9161 31.296ZM44.1321 37.504C44.1321 38.0053 44.2441 38.464 44.4681 38.88C44.7027 39.2853 45.0227 39.6107 45.4281 39.856C45.8441 40.1013 46.3187 40.224 46.8521 40.224C47.3854 40.224 47.8547 40.1013 48.2601 39.856C48.6761 39.6107 48.9961 39.2853 49.2201 38.88C49.4547 38.464 49.5721 38.0053 49.5721 37.504C49.5721 37.0027 49.4547 36.5493 49.2201 36.144C48.9961 35.728 48.6761 35.3973 48.2601 35.152C47.8547 34.9067 47.3854 34.784 46.8521 34.784C46.3187 34.784 45.8441 34.9067 45.4281 35.152C45.0227 35.3973 44.7027 35.728 44.4681 36.144C44.2441 36.5493 44.1321 37.0027 44.1321 37.504ZM45.6041 37.504C45.6041 37.2587 45.6521 37.0347 45.7481 36.832C45.8547 36.6293 45.9987 36.4693 46.1801 36.352C46.3721 36.224 46.5961 36.16 46.8521 36.16C47.1081 36.16 47.3267 36.224 47.5081 36.352C47.7001 36.4693 47.8441 36.6293 47.9401 36.832C48.0467 37.0347 48.1001 37.2587 48.1001 37.504C48.1001 37.7387 48.0467 37.9573 47.9401 38.16C47.8441 38.3627 47.7001 38.528 47.5081 38.656C47.3267 38.7733 47.1081 38.832 46.8521 38.832C46.5961 38.832 46.3721 38.7733 46.1801 38.656C45.9987 38.528 45.8547 38.3627 45.7481 38.16C45.6521 37.9573 45.6041 37.7387 45.6041 37.504ZM46.5321 28.8L38.7721 40H40.4841L48.2601 28.8H46.5321Z" fill="#3A86FF"/>
</svg>
