<svg width="294" height="224" viewBox="0 0 294 224" fill="none" xmlns="http://www.w3.org/2000/svg">
<path fill-rule="evenodd" clip-rule="evenodd" d="M60.0947 50.3267L65.9663 73.8129C65.9663 73.8129 70.533 104.802 86.8429 110.673L86.5167 123.069L30.7369 147.207C30.7369 147.207 7.90305 173.629 2.03149 206.902L18.6676 214.404L8.22925 266.27H253.204C253.204 266.27 259.728 253.548 258.423 246.045C257.118 238.543 253.53 180.806 253.53 180.806C253.53 180.806 258.423 173.629 258.423 165.801V160.255L260.38 157.646L258.423 151.448C258.423 151.448 253.856 144.272 242.113 149.165L241.461 147.534C241.461 147.534 243.092 134.486 242.113 131.55C241.134 128.614 237.546 125.678 237.546 125.678L237.22 135.791L236.241 149.817C236.241 149.817 234.284 156.341 234.61 160.908C234.937 165.475 237.872 176.891 240.482 180.153L240.808 181.784L227.434 174.282C227.434 174.282 232.327 161.56 230.696 154.058C229.065 146.555 220.584 118.502 219.932 108.716C219.279 98.9301 219.932 97.9516 219.932 97.9516C219.932 97.9516 223.52 93.0586 222.215 85.556C220.91 78.0535 212.103 60.1126 188.617 56.1982C165.13 52.2839 159.911 64.6794 159.911 64.6794L156.649 75.4439C156.649 75.4439 149.147 78.0535 145.559 82.6203C141.97 87.187 137.077 93.0586 138.708 106.107C140.339 119.154 138.708 129.267 138.708 129.267L126.965 122.743L123.051 120.133C123.051 120.133 115.222 100.235 122.398 87.187C122.398 87.187 123.703 90.1228 127.618 89.4704C131.532 88.818 135.773 87.5132 133.815 83.2727C133.815 83.2727 137.404 82.2941 138.708 79.6845C140.013 77.0749 137.404 73.8129 137.404 73.8129C137.404 73.8129 141.97 75.1177 145.559 71.5295C149.147 67.9414 147.516 62.0698 144.58 59.134L148.168 56.1982L125.66 40.5408L95.9764 29.45L63.6829 37.9312L60.0947 50.3267Z" fill="white"/>
<path d="M5 103.122C5.15788 103.832 6.10353 107.766 9.89297 109.972C10.3839 110.258 15.2208 112.969 19.3527 110.298C23.2573 107.774 24.506 101.764 22.6147 99.8598C21.6175 98.8555 19.5445 98.7922 18.5372 99.6967C17.1541 100.939 17.9063 103.89 18.8634 105.568C21.0414 109.387 26.2166 110.001 27.3445 110.135C36.9765 111.278 44.7237 101.21 45.6116 100.023" stroke="#63C2E9" stroke-width="2" stroke-linecap="round" stroke-linejoin="round"/>
<path d="M266.415 195.974C267.132 195.396 268.832 194.202 270.982 194.343C275.264 194.623 278.617 200.018 277.506 202.172C276.605 203.917 272.37 204.324 271.308 202.824C269.784 200.672 274.442 194.093 279.463 190.429C284.518 186.739 289.925 186.017 292.837 185.862" stroke="#63C2E9" stroke-width="2" stroke-linecap="round" stroke-linejoin="round"/>
<path fill-rule="evenodd" clip-rule="evenodd" d="M77.7094 37.9312C76.8234 38.258 75.1285 39.0213 73.6365 40.7078C71.6923 42.9047 71.2804 45.3251 71.1708 46.2557C68.798 45.5929 66.5508 46.701 65.931 48.4132C65.3458 50.0292 66.4161 51.6148 66.5476 51.8034C66.7531 53.6529 66.9586 55.5021 67.1637 57.3514C66.6258 58.343 65.9239 59.9218 65.6228 61.9746C65.2698 64.3829 65.6273 66.3603 65.931 67.5225C64.2576 69.026 61.851 69.0778 60.3831 67.8311C59.289 66.9018 58.8281 65.3458 59.15 63.8241C57.8146 62.7721 57.2092 61.0726 57.6091 59.5088C58.101 57.5852 59.8706 56.8193 60.0748 56.7352C57.9506 57.4342 55.678 56.9648 54.2186 55.5021C52.8101 54.0907 52.6933 52.2894 52.6776 51.8034C48.1549 49.5285 47.5439 46.8223 47.4379 46.2557C46.5918 41.7379 52.0233 35.4071 61.924 33.0023C58.4624 30.8677 56.5532 27.2586 56.9926 23.7556C57.0797 23.0621 57.4982 19.8194 60.3831 18.2076C63.0435 16.7215 65.8116 17.735 66.2393 17.8994C66.3825 17.4084 66.9484 15.6907 68.705 14.5089C70.7532 13.131 72.9038 13.5022 73.3282 13.5844C73.4483 11.7326 74.2289 10.8303 74.5613 10.5022C76.3925 8.69374 80.3049 8.81965 83.8077 11.427C83.5385 10.8287 82.8428 9.06724 83.4994 7.11201C83.6889 6.54768 83.9867 5.66075 84.7324 5.26247C85.9423 4.61594 87.9947 5.4347 89.6639 7.41994C89.839 6.98479 90.4918 5.51853 92.1296 4.64595C92.2751 4.56864 94.4088 3.47197 96.4446 4.33769C96.4449 4.33802 97.0539 4.59702 99.5268 7.11201C100.238 6.98479 102.131 6.74699 104.15 7.72819C107.158 9.18923 108.026 12.1775 108.157 12.6597C109.377 12.7914 111.194 12.996 113.397 13.2762C118.173 13.8842 120.561 14.1882 121.41 14.5089C127.139 16.6732 129.305 23.8753 129.732 25.2969C131.228 30.2694 130.336 34.5896 129.732 36.7008C130.428 36.6799 133.457 36.6636 135.589 38.8582C138.065 41.4088 138.339 45.924 135.897 49.6459C136.351 49.6371 138.881 49.6299 140.52 51.4955C142.333 53.558 142.335 57.0884 140.212 59.8171C141.016 60.2584 143.307 61.65 143.602 63.8241C144.005 66.7909 140.619 70.6716 134.794 71.5295C134.884 71.0843 135.183 69.3306 134.142 67.6152C132.663 65.1794 129.814 65.0154 129.575 65.0056C130.424 64.4814 131.696 63.5596 132.837 62.0698C134.187 60.307 135.836 57.1188 134.794 55.872C134.171 55.1267 132.895 55.4434 132.198 54.2691C131.981 53.9028 132.056 53.7896 131.858 53.2625C131.391 52.019 130.38 51.0779 129.575 50.6529C128.616 50.1466 127.619 50.1969 125.725 50.5707C122.211 51.2648 121.352 51.9414 118.484 52.6101C115.449 53.3179 113.631 53.7149 112.164 52.7282C110.857 51.8494 110.974 50.6454 109.698 50.2624C108.336 49.8534 107.539 51.0394 105.691 51.1872C103.724 51.3444 102.161 50.207 101.376 49.6459C98.3022 47.448 97.8355 43.7633 97.6776 42.557C97.3729 40.2289 97.8152 38.2606 98.2598 36.9526C93.1138 38.8814 91.2698 40.9456 90.5883 42.557C90.2954 43.2501 89.5406 45.465 87.8147 45.9475C87.2298 46.1109 86.8625 45.9834 86.5816 46.2557C86.1025 46.7199 86.1876 48.0446 88.1226 51.4955C87.4989 51.5822 85.6663 51.7525 83.9071 50.6529C81.9095 49.4042 80.7949 47.0106 80.9714 44.4551C80.3839 43.867 79.6516 43.0078 79.0142 41.8455C78.1716 40.3085 77.8464 38.8817 77.7094 37.9312Z" fill="#CFF0FF"/>
<path fill-rule="evenodd" clip-rule="evenodd" d="M128.27 83.5989C127.308 84.4346 126.405 85.0769 125.661 85.556C126.781 86.7346 128.551 86.9933 129.901 86.2084C131.122 85.4983 131.781 84.0604 131.532 82.6203C132.356 82.4914 133.744 82.1274 134.794 80.9893C136.601 79.0305 136.688 75.5545 134.794 72.5081C134.61 73.1755 133.171 78.2672 130.554 81.3155C129.538 82.4989 128.27 83.5989 128.27 83.5989Z" fill="#CFF0FF"/>
<path fill-rule="evenodd" clip-rule="evenodd" d="M42.1538 188.308C43.1161 194.555 43.9166 201.314 44.4372 208.533C44.8932 214.854 45.0857 220.849 45.0896 226.473C53.2869 229.726 65.2157 233.427 79.9927 234.628C93.71 235.743 105.288 234.331 113.591 232.671C113.765 231.557 114.075 229.71 114.57 227.452C116.307 219.522 117.959 217.284 120.115 208.859C121.402 203.831 121.013 203.818 122.072 200.704C123.754 195.757 125.987 192.013 127.618 189.613C119.142 190.426 110.214 190.999 100.869 191.244C79.3214 191.808 59.6168 190.516 42.1538 188.308Z" fill="#E9F3FD"/>
<path fill-rule="evenodd" clip-rule="evenodd" d="M33.9989 178.196C33.7194 182.323 33.7804 189.046 36.2823 196.789C38.5644 203.852 41.9793 208.985 44.4372 212.121C44.0024 205.705 43.5673 199.29 43.1325 192.875C42.0573 191.726 40.9544 190.425 39.8705 188.961C37.0251 185.117 35.1961 181.343 33.9989 178.196Z" fill="#E9F3FD"/>
<path d="M33.5098 176.402C34.5441 179.441 36.0802 183.046 38.4027 186.84C39.6951 188.952 41.0319 190.796 42.3171 192.386" stroke="#063573" stroke-width="2" stroke-linecap="round" stroke-linejoin="round"/>
<path d="M46.8838 188.798C58.9162 189.923 72.0079 190.661 86.0275 190.755C99.416 190.844 111.96 190.334 123.54 189.45" stroke="#063573" stroke-width="2" stroke-linecap="round" stroke-linejoin="round"/>
<path d="M40.686 177.055C42.0205 185.516 43.1387 194.442 43.948 203.803C45.9235 226.646 45.6726 247.589 44.2742 266.107" stroke="#063573" stroke-width="2" stroke-linecap="round" stroke-linejoin="round"/>
<path d="M42.3169 221.417C41.1048 221.525 39.2836 221.613 37.0978 221.417C29.2778 220.718 24.5561 217.088 16.5473 212.61C13.1151 210.691 8.16761 208.106 1.86841 205.434C5.78474 190.14 10.9957 178.202 15.2425 169.878C24.1272 152.464 30.2156 148.08 32.8572 146.392C34.6294 145.259 35.9805 144.617 48.5147 139.216C55.9895 135.995 62.2525 133.317 66.7818 131.387" stroke="#063573" stroke-width="2" stroke-linecap="round" stroke-linejoin="round"/>
<path d="M69.3914 130.082C71.5811 132.957 75.5588 137.333 81.7869 140.194C95.0429 146.284 108.601 140.968 114.733 138.563C118.933 136.917 125.193 133.87 131.695 128.125" stroke="#063573" stroke-width="2" stroke-linecap="round" stroke-linejoin="round"/>
<path d="M76.2417 125.515C78.8627 129.252 81.6748 131.247 83.7442 132.365C94.287 138.063 107.183 132.703 115.059 129.43C120.389 127.214 124.472 124.712 127.129 122.906" stroke="#063573" stroke-width="2" stroke-linecap="round" stroke-linejoin="round"/>
<path d="M133.979 127.799C135.61 128.342 137.24 128.886 138.871 129.43" stroke="#063573" stroke-width="2" stroke-linecap="round" stroke-linejoin="round"/>
<path d="M67.1082 57.0137C68.5972 56.5903 71.593 55.9533 75.2631 56.6875C78.7772 57.3905 81.2214 59.013 82.4394 59.9495" stroke="#063573" stroke-width="2" stroke-linecap="round" stroke-linejoin="round"/>
<path d="M86.0274 61.2543C86.715 62.2143 88.1683 64.5261 88.3108 67.7783C88.5228 72.6132 85.679 75.8924 85.0488 76.5856C86.4622 77.8904 87.876 79.1952 89.2894 80.5" stroke="#063573" stroke-width="2" stroke-linecap="round" stroke-linejoin="round"/>
<path d="M105.599 63.5377C105.491 65.1687 105.382 66.7997 105.273 68.4307" stroke="#063573" stroke-width="2" stroke-linecap="round" stroke-linejoin="round"/>
<path d="M76.2415 63.8639C76.1329 65.8211 76.0239 67.7783 75.9153 69.7355" stroke="#063573" stroke-width="2" stroke-linecap="round" stroke-linejoin="round"/>
<path d="M102.011 58.9709C103.863 58.4722 105.936 58.0142 108.209 57.6661C111.082 57.2261 113.717 57.047 116.038 57.0137" stroke="#063573" stroke-width="2" stroke-linecap="round" stroke-linejoin="round"/>
<path d="M129.412 74.3022C129.224 72.0371 128.172 70.4596 127.129 70.3878C125.765 70.2942 124.737 72.7932 124.519 73.3236C123.508 75.7799 123.653 79.0719 124.845 79.5214C125.585 79.8003 126.63 78.9483 127.129 78.2166C128.15 76.7174 127.825 74.3355 126.15 72.345" stroke="#063573" stroke-width="2" stroke-linecap="round" stroke-linejoin="round"/>
<path d="M128.76 64.8425C130.094 65.0004 132.572 65.5109 133.979 67.4521C136.749 71.2774 133.048 77.4751 132.022 79.1952C129.206 83.911 124.988 86.2688 122.562 87.3501" stroke="#063573" stroke-width="2" stroke-linecap="round" stroke-linejoin="round"/>
<path d="M65.8032 72.9974C67.0441 81.3403 69.4547 87.7474 71.3486 91.9169C74.4321 98.7054 77.3588 104.934 84.0703 109.205C86.1312 110.517 89.6571 112.7 94.5086 112.794C100.675 112.913 105.104 109.583 108.209 107.248C116.235 101.213 119.753 93.1046 121.257 88.6549" stroke="#063573" stroke-width="2" stroke-linecap="round" stroke-linejoin="round"/>
<path d="M86.6799 110.51V119.97V127.146" stroke="#063573" stroke-width="2" stroke-linecap="round" stroke-linejoin="round"/>
<path d="M119.952 92.2431C119.575 95.8946 119.418 100.442 119.952 105.617C120.564 111.536 121.897 116.504 123.214 120.296" stroke="#063573" stroke-width="2" stroke-linecap="round" stroke-linejoin="round"/>
<path d="M77.5464 127.146C78.7275 127.135 80.8146 126.955 83.0917 125.841C84.771 125.02 85.9483 123.988 86.6799 123.232" stroke="#063573" stroke-width="2" stroke-linecap="round" stroke-linejoin="round"/>
<path d="M98.7492 36.1371C98.5182 36.5543 95.8976 41.4734 98.423 46.2492C98.9694 47.2826 100.85 50.3769 104.621 51.1422C107.955 51.819 110.529 50.22 111.145 49.8374C111.67 49.5112 114.489 47.7595 114.08 46.2492C113.743 45.0022 111.27 44.1589 110.166 44.9444C108.693 45.9928 109.154 50.3006 111.145 52.1208C113.673 54.4325 119.406 53.4057 125.171 49.185" stroke="#63C2E9" stroke-width="2" stroke-linecap="round" stroke-linejoin="round"/>
<path d="M126.15 50.816C127.988 50.0905 129.956 50.3427 131.043 51.4684C133.139 53.6405 131.106 58.189 129.738 58.3185C128.937 58.3942 127.878 57.002 128.107 56.0351C128.482 54.4541 132.456 53.3528 133.979 54.7304C135.26 55.8893 135.12 59.088 132.674 61.9067" stroke="#63C2E9" stroke-width="2" stroke-linecap="round" stroke-linejoin="round"/>
<path d="M90.9205 19.501C89.7296 19.1797 86.3821 18.4549 83.0918 20.1534C78.2921 22.6309 76.3479 28.8531 77.8726 33.2013C78.0706 33.7666 79.2439 37.1118 81.787 37.4419C84.4585 37.7886 87.5401 34.665 87.0061 32.5489C86.5765 30.8462 83.7699 29.6559 81.787 30.2655C78.4252 31.2992 76.4791 37.7987 78.8512 42.0086C80.2734 44.5324 83.6026 46.8638 86.3537 45.923C88.0392 45.3466 89.6359 43.499 89.2895 42.0086C88.8544 40.1346 85.396 39.036 83.418 40.0515C80.7457 41.4234 80.1315 46.9845 82.7656 49.8374C84.3124 51.5127 86.5129 51.7489 87.3323 51.7946" stroke="#63C2E9" stroke-width="2" stroke-linecap="round" stroke-linejoin="round"/>
<path d="M64.4984 52.1208C64.1957 51.5992 63.0338 49.4805 63.846 47.8802C65.34 44.9363 72.4639 45.8147 72.9796 47.554C73.2891 48.5985 71.3701 50.4758 70.37 50.1636C69.045 49.75 68.5596 45.253 70.37 42.0086C71.5397 39.9122 73.3769 38.8612 74.2844 38.4205" stroke="#63C2E9" stroke-width="2" stroke-linecap="round" stroke-linejoin="round"/>
<path d="M57.322 35.4847C55.9999 35.3464 52.8228 35.2058 49.8195 37.1157C46.2434 39.3903 42.771 44.6632 44.9265 48.8588C46.6531 52.2196 51.4191 53.7769 54.7124 52.447C56.377 51.775 58.2657 50.1228 57.9744 48.8588C57.5794 47.1453 53.1268 45.924 51.1243 47.554C48.8836 49.3775 49.3145 55.0921 52.7552 57.0137C54.824 58.1691 57.6753 57.7826 59.9316 56.0351" stroke="#63C2E9" stroke-width="2" stroke-linecap="round" stroke-linejoin="round"/>
<path d="M55.0387 58.9709C54.9461 59.2384 53.9659 62.2058 55.6911 64.1901C56.5154 65.1384 58.2348 66.1806 59.2793 65.4949C60.2331 64.8689 60.4465 62.9179 59.6055 62.2329C59.1055 61.8258 58.2342 61.8672 57.6483 62.2329C56.11 63.1926 55.6556 66.9367 57.6483 68.7569C58.8595 69.8633 60.7717 70.0727 62.5413 69.4093" stroke="#63C2E9" stroke-width="2" stroke-linecap="round" stroke-linejoin="round"/>
<path d="M59.2794 31.8965C58.9173 31.6891 54.2589 28.9151 54.0602 23.7416C54.0387 23.1786 53.9245 18.1874 57.6484 16.239C61.021 14.4743 65.6187 16.2119 67.1082 19.1748C68.2361 21.4184 67.6594 24.5202 66.782 24.7202C65.8836 24.9247 64.1309 22.2104 63.8462 19.501C63.6152 17.3041 64.2673 14.3223 66.4558 12.6508C70.6379 9.45672 78.1464 12.7921 78.5251 15.5866C78.727 17.0777 76.9756 18.9775 75.5893 18.8486C72.9846 18.6069 69.9829 11.0495 72.6535 8.41028C74.1514 6.92966 77.4763 7.29729 80.4823 9.06267" stroke="#63C2E9" stroke-width="2" stroke-linecap="round" stroke-linejoin="round"/>
<path d="M113.428 11.6723C116.388 8.70353 119.01 8.19205 120.278 8.08408C128.637 7.37362 138.121 16.9527 137.241 26.025C136.906 29.4706 135.137 32.1405 133.652 33.8537C134.168 33.4466 136.712 31.5181 139.524 32.2227C143.136 33.1273 144.691 37.7482 144.417 41.0301C144.271 42.7834 143.603 44.1361 143.112 44.9444C143.976 44.9627 146.352 45.1356 148.005 46.9016C150.448 49.5105 149.656 53.8232 148.005 56.3613C146.972 57.9506 145.605 58.8395 144.743 59.2971" stroke="#63C2E9" stroke-width="2" stroke-linecap="round" stroke-linejoin="round"/>
<path d="M146.7 61.5805C146.965 61.9964 149.098 65.475 147.679 69.0831C146.262 72.6872 141.881 74.9425 137.241 73.976C138.907 75.8275 139.286 78.444 138.219 80.5C136.952 82.9412 134.269 83.392 133.979 83.4358C134.044 83.7959 134.403 85.9534 133 87.6763C131.57 89.4329 128.897 90.0152 126.476 88.9811" stroke="#63C2E9" stroke-width="2" stroke-linecap="round" stroke-linejoin="round"/>
<path d="M82.7655 8.73647C81.694 6.1419 82.1849 3.60734 83.4179 2.86491C84.8405 2.00832 88.0199 3.07335 89.6157 6.45309C89.8659 6.77505 91.414 8.79356 90.9205 9.38887C90.4651 9.93819 88.213 9.35005 87.6585 8.08408C86.7914 6.10438 89.6003 1.37745 93.53 1.23392C96.3197 1.13182 98.6373 3.37704 99.4016 5.4745C99.8475 6.69806 99.9835 8.4716 99.4016 8.73647C98.7851 9.017 97.1257 7.71384 97.1182 6.45309C97.1052 4.31617 101.829 1.01081 105.599 2.53872C108.005 3.51307 109.574 6.2727 109.514 9.38887" stroke="#63C2E9" stroke-width="2" stroke-linecap="round" stroke-linejoin="round"/>
<path fill-rule="evenodd" clip-rule="evenodd" d="M86.6799 117.36C88.7686 118.013 92.9351 118.973 97.7707 117.687C107.712 115.042 111.538 105.282 111.96 104.149C109.645 106.592 107.42 108.269 105.763 109.368C103.054 111.165 101.011 112.52 97.9338 112.957C95.3617 113.322 93.2261 112.881 92.0622 112.63C89.7961 112.143 88.0275 111.328 86.843 110.673C86.7886 112.902 86.7344 115.131 86.6799 117.36Z" fill="#063573"/>
<path fill-rule="evenodd" clip-rule="evenodd" d="M159.585 184.068C160.555 187.549 161.97 190.287 163.173 192.223C167.04 192.465 181.383 192.902 192.205 182.763C195.202 179.955 197.28 176.943 198.729 174.282C194.846 176.102 185.259 179.933 173.285 177.87C166.79 176.751 161.808 174.28 158.606 172.325C158.327 175.01 158.231 179.211 159.585 184.068Z" fill="#CFF0FF"/>
<path fill-rule="evenodd" clip-rule="evenodd" d="M228.087 211.468C230.261 207.554 232.436 203.64 234.611 199.725C236.47 206.311 236.408 211.59 235.915 215.383C234.848 223.594 230.697 232.996 230.696 232.997C230.696 233 230.449 226.414 229.718 220.602C229.444 218.423 228.966 215.275 228.087 211.468Z" fill="#CFF0FF"/>
<path fill-rule="evenodd" clip-rule="evenodd" d="M138.056 209.837C137.431 211.611 134.904 219.395 138.709 227.778C141.318 233.528 145.585 236.65 147.516 237.89C146.85 235.602 146.235 232.861 145.885 229.735C145.417 225.553 145.56 221.886 145.885 218.971C144.852 218.171 143.741 217.202 142.623 216.035C140.527 213.849 139.066 211.656 138.056 209.837Z" fill="#CFF0FF"/>
<path fill-rule="evenodd" clip-rule="evenodd" d="M161.868 130.571C161.114 136.867 160.452 143.395 159.911 150.143C159.279 158.03 158.857 165.65 158.606 172.977C161.049 172.615 164.41 171.834 168.066 170.041C173.253 167.498 176.632 164.097 178.505 161.886C178.287 158.298 178.07 154.71 177.852 151.122C175.687 149.748 173.163 147.848 170.676 145.25C165.557 139.904 163.084 134.201 161.868 130.571Z" fill="#E9F3FD"/>
<path fill-rule="evenodd" clip-rule="evenodd" d="M198.403 153.731C198.294 156.232 198.185 158.733 198.076 161.234C204.383 163.844 210.69 166.453 216.996 169.063C218.618 164.123 220.193 157.586 220.584 149.817C221.251 136.55 218.152 125.897 215.691 119.481C215.923 127.626 214.112 133.825 212.755 137.421C211.126 141.741 209.206 146.644 204.274 150.469C202.047 152.197 199.888 153.176 198.403 153.731Z" fill="#E9F3FD"/>
<path d="M236.322 149.342C236.753 141.454 237.183 133.566 237.613 125.678C238.317 125.955 239.32 126.458 240.195 127.399C242.416 129.79 242.13 133.202 241.915 136.865C241.734 139.964 241.525 144.576 241.485 150.633" stroke="#063573" stroke-width="2" stroke-linecap="round" stroke-linejoin="round"/>
<path d="M235.426 152.59C234.705 155.802 233.884 161.49 235.426 168.247C236.462 172.785 238.221 176.306 239.667 178.686" stroke="#063573" stroke-width="2" stroke-linecap="round" stroke-linejoin="round"/>
<path d="M253.367 180.643C254.685 179.062 256.313 176.675 257.281 173.466C257.954 171.24 258.089 169.377 258.26 166.942C258.456 164.146 258.38 161.793 258.26 160.092" stroke="#063573" stroke-width="2" stroke-linecap="round" stroke-linejoin="round"/>
<path d="M244.886 166.616C246.032 167.146 247.79 168.126 249.453 169.878C250.666 171.157 251.789 172.34 252.062 174.119C252.522 177.114 250.223 179.538 249.779 179.99" stroke="#063573" stroke-width="2" stroke-linecap="round" stroke-linejoin="round"/>
<path d="M234.448 159.766C235.137 158.663 236.466 156.857 238.723 155.342C241.484 153.49 244.185 153.045 245.538 152.916C245.744 153.101 246.041 153.423 246.191 153.894C246.324 154.315 246.384 154.997 245.81 156.069C244.414 158.678 241.659 159.116 241.298 160.745C241.125 161.524 241.443 162.833 244.233 164.985" stroke="#063573" stroke-width="2" stroke-linecap="round" stroke-linejoin="round"/>
<path d="M243.255 148.675C244.453 148.167 247.367 147.123 251.084 147.697C255.059 148.311 257.632 150.418 258.586 151.285C259.13 153.351 259.673 155.417 260.217 157.483C258.586 159.548 256.955 161.615 255.324 163.68C251.736 163.246 248.148 162.81 244.56 162.376C245.321 160.527 246.082 158.679 246.843 156.83" stroke="#063573" stroke-width="2" stroke-linecap="round" stroke-linejoin="round"/>
<path d="M248.148 149.002L250.105 151.937C250.757 153.677 251.41 155.417 252.062 157.156L248.148 163.028" stroke="#063573" stroke-width="2" stroke-linejoin="round"/>
<path d="M253.367 149.654C253.911 150.415 254.454 151.176 254.998 151.937C255.433 153.894 255.868 155.852 256.303 157.809L252.388 163.68" stroke="#063573" stroke-width="2" stroke-linejoin="round"/>
<path d="M240.972 180.969C240.884 193.162 240.201 202.891 239.667 209.022C236.848 241.358 230.661 259.848 240.972 270.347C242.652 272.059 244.323 273.101 245.212 273.609C247.643 272.094 251.024 269.536 253.693 265.454C259.648 256.346 258.026 245.809 257.281 240.337C255.395 226.469 254.179 208.604 253.693 183.905" stroke="#063573" stroke-width="2" stroke-linecap="round" stroke-linejoin="round"/>
<path d="M178.015 151.285C178.477 154.795 178.77 158.854 178.668 163.354C178.598 166.424 178.354 169.263 178.015 171.835" stroke="#063573" stroke-width="2" stroke-linecap="round" stroke-linejoin="round"/>
<path fill-rule="evenodd" clip-rule="evenodd" d="M180.299 158.135C181.56 159.715 183.092 160.438 183.887 160.745C185.164 160.547 186.17 160.284 186.823 160.092C190.302 159.07 192.744 157.697 195.304 156.178C195.669 155.961 198.702 154.161 198.566 153.894C198.474 153.716 197.071 154.416 195.304 154.873C192.646 155.56 190.484 155.358 188.78 155.199C184.141 154.766 180.486 152.943 178.505 151.774C178.433 152.464 178.193 155.498 180.299 158.135Z" fill="#063573"/>
<path d="M176.384 164.333C174.955 165.683 173.12 167.18 170.839 168.573C166.748 171.071 162.861 172.236 160.074 172.814" stroke="#063573" stroke-width="2" stroke-linecap="round" stroke-linejoin="round"/>
<path d="M162.031 174.771C165.863 176.382 171.205 178.047 177.689 178.359C193.837 179.137 205.655 170.975 209.656 167.921" stroke="#063573" stroke-width="2" stroke-linecap="round" stroke-linejoin="round"/>
<path d="M150.941 78.2166C148.486 79.7083 145.063 82.2523 142.46 86.3715C137.771 93.7906 138.559 101.854 138.872 106.27C139.878 120.488 138.762 136.624 136.262 147.697C132.177 165.794 124.262 170.959 126.476 185.209C127.316 190.62 129.232 194.867 130.717 197.605" stroke="#063573" stroke-width="2" stroke-linecap="round" stroke-linejoin="round"/>
<path d="M135.936 178.033C135.328 180.309 134.621 184.139 135.283 188.798C136.12 194.682 138.708 198.838 140.176 200.867" stroke="#063573" stroke-width="2" stroke-linecap="round" stroke-linejoin="round"/>
<path d="M145.722 183.905C145.519 185.339 144.941 190.655 148.331 195.648C150.3 198.547 152.776 200.113 154.203 200.867" stroke="#063573" stroke-width="2" stroke-linecap="round" stroke-linejoin="round"/>
<path d="M162.684 107.901C162.55 120.925 161.603 131.48 160.727 138.889C159.543 148.893 159.177 156.867 158.443 172.814C158.328 175.337 158.166 179.65 159.748 184.883C161.579 190.94 164.856 195.285 167.251 197.931" stroke="#063573" stroke-width="2" stroke-linecap="round" stroke-linejoin="round"/>
<path d="M215.202 113.772C216.492 122.091 215.258 128.603 214.223 132.365C212.722 137.825 209.709 148.782 199.87 153.242C194.609 155.627 189.714 155.102 187.801 154.873C177.68 153.66 171.549 146.322 168.882 143.13C166.81 140.65 163.688 136.252 161.705 129.756" stroke="#063573" stroke-width="2" stroke-linecap="round" stroke-linejoin="round"/>
<path d="M198.566 153.894C198.23 155.334 197.952 157.096 197.913 159.114C197.846 162.666 198.55 165.591 199.218 167.595" stroke="#063573" stroke-width="2" stroke-linecap="round" stroke-linejoin="round"/>
<path d="M200.197 162.702C201.878 163.596 203.838 164.504 206.068 165.311C207.563 165.853 208.986 166.279 210.309 166.616" stroke="#063573" stroke-width="2" stroke-linecap="round" stroke-linejoin="round"/>
<path d="M202.317 81.3155C203.601 82.4709 207.667 86.4182 208.85 93.0586C210.006 99.5457 207.688 104.551 206.89 106.107" stroke="#063573" stroke-width="2" stroke-linecap="round" stroke-linejoin="round"/>
<path d="M195.891 85.4189C196.668 87.1481 198.089 90.9499 197.536 95.809C196.779 102.46 192.833 106.627 191.578 107.853" stroke="#063573" stroke-width="2" stroke-linecap="round" stroke-linejoin="round"/>
<path d="M183.235 85.7191C183.687 87.9063 184.719 94.3634 181.277 101.05C179.465 104.571 177.067 106.884 175.406 108.227" stroke="#063573" stroke-width="2" stroke-linecap="round" stroke-linejoin="round"/>
<path d="M171.491 93.5479C170.9 97.0708 169.84 101.334 167.903 105.943C166.873 108.394 165.751 110.569 164.641 112.467" stroke="#063573" stroke-width="2" stroke-linecap="round" stroke-linejoin="round"/>
<path d="M197.261 102.355C198.051 102.214 198.925 102.097 199.871 102.029C201.196 101.934 202.403 101.953 203.459 102.029" stroke="#063573" stroke-width="2" stroke-linecap="round" stroke-linejoin="round"/>
<path d="M172.144 104.965C172.671 104.576 173.67 103.945 175.08 103.66C176.341 103.405 177.395 103.535 178.015 103.66" stroke="#063573" stroke-width="2" stroke-linecap="round" stroke-linejoin="round"/>
<path d="M176.71 113.772V119.644" stroke="#063573" stroke-width="2" stroke-linecap="round" stroke-linejoin="round"/>
<path d="M202.806 112.467V118.991" stroke="#063573" stroke-width="2" stroke-linecap="round" stroke-linejoin="round"/>
<path d="M190.411 114.751C190.227 115.339 190.02 116.251 190.085 117.36C190.117 117.906 190.229 118.751 190.737 119.97C191.898 122.755 194.24 125.37 194.978 126.168L191.063 131.061" stroke="#063573" stroke-width="2" stroke-linecap="round" stroke-linejoin="round"/>
<path d="M185.844 140.194C186.728 140.527 188.355 141.005 190.411 140.847C192.774 140.665 194.484 139.736 195.304 139.216" stroke="#063573" stroke-width="2" stroke-linecap="round" stroke-linejoin="round"/>
<path d="M158.117 70.7141C158.52 66.7185 159.927 64.119 161.053 62.5591C166.342 55.2353 178.37 52.9382 191.063 57.0137" stroke="#063573" stroke-width="2" stroke-linecap="round" stroke-linejoin="round"/>
<path d="M199.544 59.9495C203.043 61.179 208.433 63.6692 213.245 68.7569C215.377 71.0115 221.65 77.6444 222.052 87.6763C222.229 92.0793 221.214 95.6385 220.421 97.7885" stroke="#063573" stroke-width="2" stroke-linecap="round" stroke-linejoin="round"/>
<path d="M219.769 108.553C220.094 110.617 220.617 113.679 221.4 117.36C223.1 125.357 224.345 128.365 226.619 136.932C229.109 146.315 230.354 151.006 230.533 155.852C230.779 162.5 229.6 167.961 228.576 171.509" stroke="#063573" stroke-width="2" stroke-linecap="round" stroke-linejoin="round"/>
<path d="M121.909 201.846C120.936 206.368 119.966 209.958 119.3 212.284C116.168 223.217 114.61 224.174 114.407 229.572C114.329 231.625 114.48 233.452 113.428 235.77C111.847 239.255 109.027 240.589 109.514 241.642C110.037 242.775 113.71 242.096 114.407 241.968C116.943 241.499 118.831 240.438 119.952 239.684C119.943 240.005 119.901 242.946 121.909 244.251C124.718 246.077 128.579 242.779 128.759 242.62C130.87 240.77 132.061 237.681 131.369 237.075C130.788 236.566 128.553 237.512 128.107 239.032C127.586 240.808 129.736 242.593 131.043 243.273C134.023 244.823 137.456 243.016 138.219 242.62C139.274 242.073 140.032 241.436 140.502 240.989C140.656 241.249 141.475 242.578 143.112 242.946C144.652 243.293 146.309 242.654 147.353 241.315" stroke="#63C2E9" stroke-width="2" stroke-linecap="round" stroke-linejoin="round"/>
<path d="M137.567 208.696C138.65 210.857 140.208 213.379 142.46 215.872C143.226 216.72 143.994 217.479 144.743 218.155" stroke="#63C2E9" stroke-width="2" stroke-linecap="round" stroke-linejoin="round"/>
<path d="M147.679 210.653C146.758 213.817 145.87 218.036 145.722 223.048C145.532 229.449 146.62 234.737 147.679 238.38" stroke="#63C2E9" stroke-width="2" stroke-linecap="round" stroke-linejoin="round"/>
<path d="M235.1 198.584C233.143 202.063 231.185 205.542 229.228 209.022" stroke="#63C2E9" stroke-width="2" stroke-linecap="round" stroke-linejoin="round"/>
<path d="M224.335 198.91C226.723 205.271 228.086 210.888 228.902 215.22C229.82 220.093 231.118 226.977 230.533 235.77C230.091 242.431 229.025 243.311 228.902 249.144C228.759 255.962 230.071 261.527 231.186 265.128" stroke="#63C2E9" stroke-width="2" stroke-linecap="round" stroke-linejoin="round"/>
<path d="M256.303 200.867C258.816 208.289 259.299 212.61 259.239 215.22C259.21 216.454 259.038 218.268 259.891 220.439C260.9 223.007 262.593 224.165 262.174 225.006C261.935 225.486 261.008 225.859 257.934 225.332" stroke="#63C2E9" stroke-width="2" stroke-linecap="round" stroke-linejoin="round"/>
<path d="M211.94 167.269C217.154 168.869 223.348 171.305 229.881 175.097C233.197 177.023 236.128 179.023 238.688 180.969" stroke="#63C2E9" stroke-width="2" stroke-linecap="round" stroke-linejoin="round"/>
<path d="M86.5168 92.08C86.5168 92.08 95.3242 97.2992 105.11 92.08" stroke="#063573" stroke-width="2" stroke-linecap="round" stroke-linejoin="round"/>
</svg>
