<svg width="176" height="176" viewBox="0 0 176 176" fill="none" xmlns="http://www.w3.org/2000/svg">
<path fill-rule="evenodd" clip-rule="evenodd" d="M88 164C105.058 164 120.803 158.38 133.485 148.892C152.01 135.031 164 112.916 164 88C164 72.0698 159.099 57.2844 150.722 45.0694C137.027 25.0997 114.043 12 88 12C46.0264 12 12 46.0264 12 88C12 129.974 46.0264 164 88 164Z" stroke="#8F26F5" stroke-width="24" stroke-linejoin="round"/>
<path d="M133.485 148.892C152.01 135.031 164 112.916 164 88C164 72.0698 159.099 57.2844 150.722 45.0694C137.027 25.0997 114.043 12 88 12C46.0264 12 12 46.0264 12 88" stroke="#FF006D" stroke-width="24" stroke-linejoin="round"/>
<path d="M133.485 148.892C152.01 135.031 164 112.916 164 88C164 72.0699 159.099 57.2844 150.722 45.0694" stroke="#FFBC00" stroke-width="24" stroke-linejoin="round"/>
<path d="M150.722 45.0694C137.027 25.0997 114.043 12 88 12" stroke="#3A86FF" stroke-width="24" stroke-linejoin="round"/>
<path d="M62.1741 79.76H70.7021V78.56H68.4141H68.1421H64.4141L67.5821 73.824V79.008V79.184V82H68.9421V70.8H68.3821L62.1741 79.76ZM79.0591 69.52H77.7791V82H79.0591V69.52ZM82.4991 77.52V82H83.7791V77.36C83.7791 76.72 83.6724 76.1867 83.4591 75.76C83.2564 75.3333 82.9631 75.0133 82.5791 74.8C82.2057 74.5867 81.7631 74.48 81.2511 74.48C80.7391 74.48 80.2857 74.6133 79.8911 74.88C79.5071 75.1467 79.2031 75.5093 78.9791 75.968C78.7551 76.416 78.6431 76.9333 78.6431 77.52H79.0591C79.0591 77.168 79.1337 76.8533 79.2831 76.576C79.4431 76.2987 79.6617 76.08 79.9391 75.92C80.2271 75.76 80.5577 75.68 80.9311 75.68C81.2831 75.68 81.5711 75.7493 81.7951 75.888C82.0297 76.0267 82.2057 76.2347 82.3231 76.512C82.4404 76.7787 82.4991 77.1147 82.4991 77.52ZM85.8453 78.32C85.8453 79.056 86.0106 79.7173 86.3413 80.304C86.6826 80.88 87.1413 81.3333 87.7173 81.664C88.2933 81.9947 88.9386 82.16 89.6533 82.16C90.3786 82.16 91.024 81.9947 91.5893 81.664C92.1653 81.3333 92.6186 80.88 92.9493 80.304C93.2906 79.7173 93.4613 79.056 93.4613 78.32C93.4613 77.5733 93.2906 76.912 92.9493 76.336C92.6186 75.76 92.1653 75.3067 91.5893 74.976C91.024 74.6453 90.3786 74.48 89.6533 74.48C88.9386 74.48 88.2933 74.6453 87.7173 74.976C87.1413 75.3067 86.6826 75.76 86.3413 76.336C86.0106 76.912 85.8453 77.5733 85.8453 78.32ZM87.1413 78.32C87.1413 77.808 87.248 77.3547 87.4613 76.96C87.6853 76.5547 87.984 76.24 88.3573 76.016C88.7413 75.792 89.1733 75.68 89.6533 75.68C90.1333 75.68 90.56 75.792 90.9333 76.016C91.3173 76.24 91.616 76.5547 91.8293 76.96C92.0533 77.3547 92.1653 77.808 92.1653 78.32C92.1653 78.832 92.0533 79.2853 91.8293 79.68C91.616 80.0747 91.3173 80.3893 90.9333 80.624C90.56 80.848 90.1333 80.96 89.6533 80.96C89.1733 80.96 88.7413 80.848 88.3573 80.624C87.984 80.3893 87.6853 80.0747 87.4613 79.68C87.248 79.2853 87.1413 78.832 87.1413 78.32ZM96.7997 79.12V74.64H95.5197V79.28C95.5197 79.8667 95.621 80.3787 95.8237 80.816C96.037 81.2427 96.3304 81.5733 96.7037 81.808C97.0877 82.0427 97.5357 82.16 98.0477 82.16C98.5384 82.16 98.965 82.0533 99.3277 81.84C99.6904 81.616 99.9944 81.2853 100.24 80.848V82H101.52V74.64H100.24V79.12C100.24 79.4827 100.16 79.8027 99.9997 80.08C99.8504 80.3573 99.6317 80.576 99.3437 80.736C99.0664 80.8853 98.741 80.96 98.3677 80.96C98.0264 80.96 97.7384 80.8907 97.5037 80.752C97.269 80.6027 97.093 80.3947 96.9757 80.128C96.8584 79.8507 96.7997 79.5147 96.7997 79.12ZM105.506 74.64H104.226V82H105.506V74.64ZM107.73 76.048L108.434 74.992C108.242 74.7893 108.029 74.656 107.794 74.592C107.57 74.5173 107.325 74.48 107.058 74.48C106.717 74.48 106.381 74.6133 106.05 74.88C105.719 75.1467 105.447 75.5093 105.234 75.968C105.031 76.416 104.93 76.9333 104.93 77.52H105.506C105.506 77.168 105.538 76.8533 105.602 76.576C105.677 76.2987 105.805 76.08 105.986 75.92C106.167 75.76 106.418 75.68 106.738 75.68C106.951 75.68 107.127 75.712 107.266 75.776C107.405 75.8293 107.559 75.92 107.73 76.048ZM110.314 79.744L109.306 80.368C109.445 80.656 109.648 80.9387 109.914 81.216C110.192 81.4933 110.528 81.7227 110.922 81.904C111.317 82.0747 111.76 82.16 112.25 82.16C112.752 82.16 113.189 82.064 113.562 81.872C113.946 81.6693 114.245 81.4027 114.458 81.072C114.672 80.7307 114.778 80.3467 114.778 79.92C114.778 79.4827 114.672 79.1253 114.458 78.848C114.256 78.5707 113.978 78.336 113.626 78.144C113.274 77.9413 112.885 77.7547 112.458 77.584C112.202 77.4773 111.957 77.3653 111.722 77.248C111.488 77.1307 111.296 76.9973 111.146 76.848C110.997 76.6987 110.922 76.528 110.922 76.336C110.922 76.0907 111.018 75.9093 111.21 75.792C111.402 75.6747 111.632 75.616 111.898 75.616C112.282 75.616 112.624 75.7067 112.922 75.888C113.232 76.0693 113.488 76.2987 113.69 76.576L114.714 75.92C114.565 75.6427 114.357 75.3973 114.09 75.184C113.824 74.9707 113.514 74.8 113.162 74.672C112.821 74.544 112.453 74.48 112.058 74.48C111.664 74.48 111.28 74.5493 110.906 74.688C110.544 74.8267 110.245 75.04 110.01 75.328C109.786 75.616 109.674 75.9787 109.674 76.416C109.674 76.8427 109.781 77.2 109.994 77.488C110.218 77.7653 110.49 77.9947 110.81 78.176C111.141 78.3467 111.466 78.496 111.786 78.624C112.074 78.7307 112.346 78.848 112.602 78.976C112.858 79.0933 113.066 79.2427 113.226 79.424C113.397 79.5947 113.482 79.808 113.482 80.064C113.482 80.352 113.376 80.5813 113.162 80.752C112.96 80.912 112.677 80.992 112.314 80.992C112.016 80.992 111.738 80.9387 111.482 80.832C111.237 80.7147 111.018 80.56 110.826 80.368C110.634 80.176 110.464 79.968 110.314 79.744ZM64.6755 100.48C65.2195 100.48 65.7102 100.405 66.1475 100.256C66.5955 100.107 66.9795 99.904 67.2995 99.648C67.6302 99.3813 67.8808 99.0773 68.0515 98.736C68.2328 98.384 68.3235 98.0107 68.3235 97.616C68.3235 97.0827 68.1955 96.592 67.9395 96.144C67.6942 95.696 67.3368 95.3333 66.8675 95.056C66.4088 94.7787 65.8595 94.64 65.2195 94.64C64.6115 94.64 64.0675 94.768 63.5875 95.024C63.1182 95.2693 62.7448 95.6107 62.4675 96.048C62.2008 96.4853 62.0675 96.9973 62.0675 97.584H63.3635C63.3635 97.2533 63.4435 96.96 63.6035 96.704C63.7742 96.448 63.9982 96.2453 64.2755 96.096C64.5635 95.9467 64.8835 95.872 65.2355 95.872C65.6088 95.872 65.9182 95.9467 66.1635 96.096C66.4195 96.2453 66.6115 96.4587 66.7395 96.736C66.8675 97.0027 66.9315 97.312 66.9315 97.664C66.9315 97.9307 66.8782 98.1813 66.7715 98.416C66.6755 98.6507 66.5315 98.8587 66.3395 99.04C66.1475 99.2107 65.9128 99.3493 65.6355 99.456C65.3582 99.552 65.0382 99.6 64.6755 99.6V100.48ZM65.1555 106.16C65.8275 106.16 66.4248 106.032 66.9475 105.776C67.4702 105.52 67.8808 105.157 68.1795 104.688C68.4888 104.219 68.6435 103.669 68.6435 103.04C68.6435 102.485 68.5368 102.011 68.3235 101.616C68.1208 101.221 67.8328 100.901 67.4595 100.656C67.0968 100.4 66.6755 100.213 66.1955 100.096C65.7262 99.9787 65.2195 99.92 64.6755 99.92V100.8C65.0382 100.8 65.3742 100.843 65.6835 100.928C65.9928 101.013 66.2648 101.147 66.4995 101.328C66.7342 101.499 66.9155 101.717 67.0435 101.984C67.1822 102.24 67.2515 102.539 67.2515 102.88C67.2515 103.285 67.1662 103.637 66.9955 103.936C66.8248 104.235 66.5795 104.469 66.2595 104.64C65.9502 104.8 65.5822 104.88 65.1555 104.88C64.7288 104.88 64.3502 104.8 64.0195 104.64C63.6888 104.48 63.4275 104.261 63.2355 103.984C63.0542 103.707 62.9635 103.392 62.9635 103.04H61.5875C61.5875 103.477 61.6728 103.888 61.8435 104.272C62.0142 104.645 62.2542 104.976 62.5635 105.264C62.8728 105.541 63.2462 105.76 63.6835 105.92C64.1208 106.08 64.6115 106.16 65.1555 106.16ZM78.0459 102.32C78.0459 101.573 77.9019 100.917 77.6139 100.352C77.3259 99.7867 76.9259 99.344 76.4139 99.024C75.9125 98.704 75.3419 98.544 74.7019 98.544C74.4245 98.544 74.1419 98.5813 73.8539 98.656C73.5765 98.72 73.3045 98.8213 73.0379 98.96L73.7899 96H78.0139V94.8H72.7339L71.2619 100.768C71.6459 100.501 71.9819 100.299 72.2699 100.16C72.5685 100.011 72.8619 99.9093 73.1499 99.856C73.4485 99.792 73.7739 99.76 74.1259 99.76C74.6059 99.76 75.0325 99.8667 75.4059 100.08C75.7899 100.293 76.0885 100.592 76.3019 100.976C76.5259 101.36 76.6379 101.808 76.6379 102.32C76.6379 102.832 76.5365 103.28 76.3339 103.664C76.1419 104.048 75.8592 104.347 75.4859 104.56C75.1125 104.773 74.6592 104.88 74.1259 104.88C73.7205 104.88 73.3312 104.795 72.9579 104.624C72.5845 104.443 72.2539 104.213 71.9659 103.936C71.6885 103.648 71.4645 103.344 71.2939 103.024L70.1419 103.808C70.3872 104.235 70.6859 104.629 71.0379 104.992C71.4005 105.344 71.8325 105.627 72.3339 105.84C72.8459 106.053 73.4432 106.16 74.1259 106.16C74.6699 106.16 75.1765 106.08 75.6459 105.92C76.1152 105.76 76.5312 105.52 76.8939 105.2C77.2565 104.88 77.5392 104.48 77.7419 104C77.9445 103.52 78.0459 102.96 78.0459 102.32ZM95.37 101.36C95.37 100.752 95.274 100.235 95.082 99.808C94.9007 99.3707 94.634 99.04 94.282 98.816C93.93 98.592 93.5033 98.48 93.002 98.48C92.5113 98.48 92.074 98.5973 91.69 98.832C91.306 99.056 90.986 99.3973 90.73 99.856C90.6233 99.5573 90.4633 99.3067 90.25 99.104C90.0473 98.9013 89.8073 98.7467 89.53 98.64C89.2527 98.5333 88.9433 98.48 88.602 98.48C88.3033 98.48 88.026 98.528 87.77 98.624C87.514 98.7093 87.2847 98.8427 87.082 99.024C86.89 99.2053 86.7193 99.4347 86.57 99.712V98.64H85.29V106H86.57V101.52C86.57 101.136 86.6393 100.805 86.778 100.528C86.9167 100.251 87.114 100.043 87.37 99.904C87.626 99.7547 87.93 99.68 88.282 99.68C88.602 99.68 88.8633 99.7493 89.066 99.888C89.2793 100.016 89.434 100.213 89.53 100.48C89.6367 100.747 89.69 101.093 89.69 101.52V106H90.97V101.52C90.97 101.136 91.0393 100.805 91.178 100.528C91.3167 100.251 91.514 100.043 91.77 99.904C92.026 99.7547 92.33 99.68 92.682 99.68C93.002 99.68 93.2633 99.7493 93.466 99.888C93.6793 100.016 93.834 100.213 93.93 100.48C94.0367 100.747 94.09 101.093 94.09 101.52V106H95.37V101.36ZM98.0744 95.6C98.0744 95.8347 98.1597 96.0427 98.3304 96.224C98.5117 96.3947 98.7197 96.48 98.9544 96.48C99.1997 96.48 99.4077 96.3947 99.5784 96.224C99.749 96.0427 99.8344 95.8347 99.8344 95.6C99.8344 95.3547 99.749 95.1467 99.5784 94.976C99.4077 94.8053 99.1997 94.72 98.9544 94.72C98.7197 94.72 98.5117 94.8053 98.3304 94.976C98.1597 95.1467 98.0744 95.3547 98.0744 95.6ZM98.3144 98.64V106H99.5944V98.64H98.3144ZM107.251 101.52V106H108.531V101.36C108.531 100.763 108.424 100.251 108.211 99.824C108.008 99.3973 107.72 99.0667 107.347 98.832C106.973 98.5973 106.525 98.48 106.003 98.48C105.523 98.48 105.096 98.5867 104.723 98.8C104.36 99.0133 104.056 99.344 103.811 99.792V98.64H102.531V106H103.811V101.52C103.811 101.157 103.885 100.837 104.035 100.56C104.195 100.283 104.413 100.069 104.691 99.92C104.979 99.76 105.309 99.68 105.683 99.68C106.024 99.68 106.312 99.7493 106.547 99.888C106.781 100.027 106.957 100.235 107.075 100.512C107.192 100.779 107.251 101.115 107.251 101.52ZM111.541 103.744L110.533 104.368C110.672 104.656 110.874 104.939 111.141 105.216C111.418 105.493 111.754 105.723 112.149 105.904C112.544 106.075 112.986 106.16 113.477 106.16C113.978 106.16 114.416 106.064 114.789 105.872C115.173 105.669 115.472 105.403 115.685 105.072C115.898 104.731 116.005 104.347 116.005 103.92C116.005 103.483 115.898 103.125 115.685 102.848C115.482 102.571 115.205 102.336 114.853 102.144C114.501 101.941 114.112 101.755 113.685 101.584C113.429 101.477 113.184 101.365 112.949 101.248C112.714 101.131 112.522 100.997 112.373 100.848C112.224 100.699 112.149 100.528 112.149 100.336C112.149 100.091 112.245 99.9093 112.437 99.792C112.629 99.6747 112.858 99.616 113.125 99.616C113.509 99.616 113.85 99.7067 114.149 99.888C114.458 100.069 114.714 100.299 114.917 100.576L115.941 99.92C115.792 99.6427 115.584 99.3973 115.317 99.184C115.05 98.9707 114.741 98.8 114.389 98.672C114.048 98.544 113.68 98.48 113.285 98.48C112.89 98.48 112.506 98.5493 112.133 98.688C111.77 98.8267 111.472 99.04 111.237 99.328C111.013 99.616 110.901 99.9787 110.901 100.416C110.901 100.843 111.008 101.2 111.221 101.488C111.445 101.765 111.717 101.995 112.037 102.176C112.368 102.347 112.693 102.496 113.013 102.624C113.301 102.731 113.573 102.848 113.829 102.976C114.085 103.093 114.293 103.243 114.453 103.424C114.624 103.595 114.709 103.808 114.709 104.064C114.709 104.352 114.602 104.581 114.389 104.752C114.186 104.912 113.904 104.992 113.541 104.992C113.242 104.992 112.965 104.939 112.709 104.832C112.464 104.715 112.245 104.56 112.053 104.368C111.861 104.176 111.69 103.968 111.541 103.744Z" fill="black" fill-opacity="0.85"/>
</svg>

