<svg width="66" height="43" viewBox="0 0 66 43" fill="none" xmlns="http://www.w3.org/2000/svg">
<path fill-rule="evenodd" clip-rule="evenodd" d="M33 65C50.6731 65 65 50.6731 65 33C65 15.3269 50.6731 1 33 1C15.3269 1 1 15.3269 1 33C1 50.6731 15.3269 65 33 65Z" stroke="#C5CBD1" stroke-width="2" stroke-linecap="round" stroke-linejoin="round"/>
<path d="M23.8069 33.4C23.8069 32.792 23.8656 32.2427 23.9829 31.752C24.1003 31.2507 24.2656 30.8187 24.4789 30.456C24.6923 30.0933 24.9536 29.816 25.2629 29.624C25.5723 29.4213 25.9189 29.32 26.3029 29.32C26.6123 29.32 26.8949 29.384 27.1509 29.512C27.4176 29.64 27.6523 29.8267 27.8549 30.072C28.0576 30.3067 28.2283 30.5893 28.3669 30.92C28.5163 31.2507 28.6283 31.6293 28.7029 32.056C28.7776 32.472 28.8149 32.92 28.8149 33.4C28.8149 34.008 28.7563 34.5627 28.6389 35.064C28.5216 35.5547 28.3509 35.9813 28.1269 36.344C27.9136 36.7067 27.6523 36.9893 27.3429 37.192C27.0336 37.384 26.6869 37.48 26.3029 37.48C25.9936 37.48 25.7109 37.416 25.4549 37.288C25.1989 37.16 24.9696 36.9787 24.7669 36.744C24.5643 36.4987 24.3883 36.2107 24.2389 35.88C24.1003 35.5493 23.9936 35.176 23.9189 34.76C23.8443 34.3333 23.8069 33.88 23.8069 33.4ZM21.9509 33.4C21.9509 34.0933 22.0149 34.7387 22.1429 35.336C22.2816 35.9227 22.4789 36.456 22.7349 36.936C22.9909 37.4053 23.2949 37.8107 23.6469 38.152C24.0096 38.4827 24.4096 38.7387 24.8469 38.92C25.2949 39.0907 25.7803 39.176 26.3029 39.176C26.9643 39.176 27.5616 39.0427 28.0949 38.776C28.6283 38.4987 29.0869 38.104 29.4709 37.592C29.8549 37.08 30.1483 36.472 30.3509 35.768C30.5643 35.0533 30.6709 34.264 30.6709 33.4C30.6709 32.7067 30.6016 32.0667 30.4629 31.48C30.3349 30.8827 30.1429 30.3493 29.8869 29.88C29.6309 29.4 29.3216 28.9947 28.9589 28.664C28.6069 28.3227 28.2069 28.0667 27.7589 27.896C27.3109 27.7147 26.8256 27.624 26.3029 27.624C25.6523 27.624 25.0603 27.7627 24.5269 28.04C23.9936 28.3067 23.5349 28.696 23.1509 29.208C22.7669 29.72 22.4683 30.3333 22.2549 31.048C22.0523 31.752 21.9509 32.536 21.9509 33.4ZM32.0753 30.296C32.0753 30.7973 32.1926 31.256 32.4273 31.672C32.662 32.0773 32.982 32.4027 33.3873 32.648C33.8033 32.8933 34.278 33.016 34.8113 33.016C35.3446 33.016 35.814 32.8933 36.2193 32.648C36.6353 32.4027 36.9553 32.0773 37.1793 31.672C37.414 31.256 37.5313 30.7973 37.5313 30.296C37.5313 29.7947 37.414 29.3413 37.1793 28.936C36.9553 28.52 36.6353 28.1893 36.2193 27.944C35.814 27.6987 35.3446 27.576 34.8113 27.576C34.278 27.576 33.8033 27.6987 33.3873 27.944C32.982 28.1893 32.662 28.52 32.4273 28.936C32.1926 29.3413 32.0753 29.7947 32.0753 30.296ZM33.5473 30.296C33.5473 30.0507 33.6006 29.832 33.7073 29.64C33.814 29.4373 33.958 29.2773 34.1393 29.16C34.3313 29.032 34.5553 28.968 34.8113 28.968C35.0673 28.968 35.286 29.032 35.4673 29.16C35.6593 29.2773 35.8033 29.4373 35.8993 29.64C35.9953 29.832 36.0433 30.0507 36.0433 30.296C36.0433 30.5307 35.9953 30.7547 35.8993 30.968C35.8033 31.1707 35.6593 31.336 35.4673 31.464C35.286 31.5813 35.0673 31.64 34.8113 31.64C34.5553 31.64 34.3313 31.5813 34.1393 31.464C33.958 31.336 33.814 31.1707 33.7073 30.968C33.6006 30.7547 33.5473 30.5307 33.5473 30.296ZM38.7633 36.504C38.7633 37.0053 38.8753 37.464 39.0993 37.88C39.334 38.2853 39.654 38.6107 40.0593 38.856C40.4753 39.1013 40.95 39.224 41.4833 39.224C42.0166 39.224 42.486 39.1013 42.8913 38.856C43.3073 38.6107 43.6273 38.2853 43.8513 37.88C44.086 37.464 44.2033 37.0053 44.2033 36.504C44.2033 36.0027 44.086 35.5493 43.8513 35.144C43.6273 34.728 43.3073 34.3973 42.8913 34.152C42.486 33.9067 42.0166 33.784 41.4833 33.784C40.95 33.784 40.4753 33.9067 40.0593 34.152C39.654 34.3973 39.334 34.728 39.0993 35.144C38.8753 35.5493 38.7633 36.0027 38.7633 36.504ZM40.2353 36.504C40.2353 36.2587 40.2833 36.0347 40.3793 35.832C40.486 35.6293 40.63 35.4693 40.8113 35.352C41.0033 35.224 41.2273 35.16 41.4833 35.16C41.7393 35.16 41.958 35.224 42.1393 35.352C42.3313 35.4693 42.4753 35.6293 42.5713 35.832C42.678 36.0347 42.7313 36.2587 42.7313 36.504C42.7313 36.7387 42.678 36.9573 42.5713 37.16C42.4753 37.3627 42.3313 37.528 42.1393 37.656C41.958 37.7733 41.7393 37.832 41.4833 37.832C41.2273 37.832 41.0033 37.7733 40.8113 37.656C40.63 37.528 40.486 37.3627 40.3793 37.16C40.2833 36.9573 40.2353 36.7387 40.2353 36.504ZM41.1633 27.8L33.4033 39H35.1153L42.8913 27.8H41.1633Z" fill="#C4CBD2"/>
</svg>
